<?xml version="1.0" standalone="no"?>
<!DOCTYPE svg PUBLIC "-//W3C//DTD SVG 20010904//EN"
 "http://www.w3.org/TR/2001/REC-SVG-20010904/DTD/svg10.dtd">
<svg version="1.0" xmlns="http://www.w3.org/2000/svg"
 width="500.000000pt" height="500.000000pt" viewBox="0 0 500.000000 500.000000"
 preserveAspectRatio="xMidYMid meet">

<g transform="translate(0.000000,500.000000) scale(0.100000,-0.100000)"
fill="#000000" stroke="none">
<path d="M1573 3283 c-50 -10 -81 -94 -50 -134 30 -39 87 -50 125 -23 19 13
23 13 28 1 7 -19 71 -53 81 -44 12 12 -10 41 -44 57 -27 13 -31 20 -31 51 0
45 -19 76 -56 89 -16 5 -29 9 -30 9 -1 -1 -11 -4 -23 -6z m56 -18 c50 -25 57
-91 15 -124 -35 -28 -69 -26 -99 4 -48 47 -20 115 53 134 2 1 16 -6 31 -14z"/>
<path d="M1562 3164 c10 -10 20 -16 22 -13 3 3 -5 11 -17 18 -21 13 -21 12 -5
-5z"/>
<path d="M147 3203 c-27 -31 -26 -84 3 -113 26 -26 80 -26 114 1 33 26 36 79
6 109 -26 26 -100 28 -123 3z"/>
<path d="M4250 2715 l0 -405 70 0 70 0 0 204 0 204 31 26 c38 33 105 36 140 7
24 -19 24 -22 27 -230 l3 -211 76 0 75 0 -4 218 c-3 207 -4 219 -28 267 -43
85 -143 118 -235 76 -22 -10 -46 -25 -54 -34 -7 -10 -17 -17 -22 -17 -5 0 -9
68 -9 150 l0 150 -70 0 -70 0 0 -405z"/>
<path d="M1995 3080 c-132 -28 -204 -101 -205 -208 0 -101 77 -178 230 -227
69 -22 142 -59 159 -79 20 -24 18 -82 -4 -106 -26 -29 -84 -44 -141 -35 -57 8
-114 58 -114 99 0 26 -1 26 -75 26 l-75 0 0 -31 c0 -73 70 -156 160 -191 66
-25 192 -30 261 -9 148 43 206 210 111 322 -39 48 -101 83 -209 120 -55 19
-107 44 -124 60 -92 86 66 194 179 122 13 -8 30 -30 38 -49 l14 -34 76 0 76 0
-7 33 c-19 83 -71 142 -153 171 -54 20 -147 27 -197 16z"/>
<path d="M908 3074 c-5 -4 -8 -178 -8 -386 l0 -378 158 0 c175 0 258 11 314
42 120 67 133 257 23 327 l-43 27 38 32 c46 39 64 86 58 159 -7 79 -58 137
-147 164 -42 13 -383 25 -393 13z m363 -153 c57 -57 27 -142 -56 -161 -22 -5
-66 -10 -97 -10 l-58 0 0 100 0 100 91 0 c87 0 92 -1 120 -29z m13 -300 c49
-46 43 -131 -12 -167 -18 -12 -55 -19 -119 -22 l-93 -5 0 113 0 112 99 -4 c89
-3 102 -6 125 -27z"/>
<path d="M1540 2695 l0 -385 75 0 75 0 0 385 0 385 -75 0 -75 0 0 -385z"/>
<path d="M497 2986 c-58 -21 -100 -59 -132 -117 -37 -69 -47 -194 -21 -281 33
-115 128 -183 256 -183 82 1 132 18 182 63 62 56 81 102 86 210 7 149 -29 232
-124 288 -39 23 -61 28 -128 31 -52 2 -94 -2 -119 -11z m158 -118 c43 -19 65
-76 65 -163 0 -117 -32 -172 -107 -181 -49 -6 -99 24 -119 71 -8 19 -14 66
-14 107 0 81 25 148 63 166 30 14 80 15 112 0z"/>
<path d="M138 2666 c-3 -302 -4 -325 -22 -345 -13 -14 -31 -21 -58 -21 l-38 0
0 -61 0 -61 79 3 c84 4 114 18 154 70 32 44 37 95 37 422 l0 317 -75 0 -74 0
-3 -324z"/>
<path d="M2547 2876 c-121 -44 -176 -132 -176 -286 -1 -69 4 -95 23 -135 25
-56 78 -107 134 -131 50 -22 185 -23 233 -1 41 18 99 64 99 78 0 4 -14 24 -31
44 -28 31 -34 34 -48 22 -76 -67 -195 -59 -241 15 -41 68 -41 68 161 68 l182
0 -6 78 c-7 99 -29 153 -83 201 -66 58 -164 76 -247 47z m148 -128 c14 -13 30
-40 34 -60 l9 -38 -109 0 c-120 0 -124 2 -94 60 32 62 110 80 160 38z"/>
<path d="M3047 2876 c-27 -7 -61 -22 -75 -33 -37 -27 -72 -81 -72 -109 0 -23
3 -24 70 -24 42 0 70 4 70 10 0 25 50 60 85 60 49 0 71 -13 84 -51 20 -59 16
-69 -31 -69 -72 0 -170 -20 -211 -43 -53 -29 -80 -77 -80 -140 -1 -63 22 -111
66 -138 76 -46 166 -48 232 -4 l36 25 9 -25 c9 -24 14 -25 83 -25 l74 0 -13
52 c-9 34 -14 111 -14 215 0 90 -5 174 -11 190 -37 98 -167 145 -302 109z
m173 -352 c0 -60 -11 -78 -61 -98 -100 -40 -172 43 -100 115 27 26 36 29 95
29 l66 0 0 -46z"/>
<path d="M3632 2874 c-18 -9 -37 -25 -43 -35 -15 -28 -29 -23 -29 11 l0 30
-70 0 -70 0 0 -285 0 -285 75 0 75 0 2 196 3 197 27 20 c19 14 43 20 83 21
l56 0 -3 71 -3 70 -35 3 c-19 1 -50 -5 -68 -14z"/>
<path d="M3890 2870 c-113 -38 -166 -140 -158 -299 8 -149 73 -236 196 -262
112 -23 225 23 270 111 37 74 33 80 -47 80 -65 0 -69 -1 -75 -25 -7 -28 -52
-55 -90 -55 -75 0 -110 55 -110 175 0 122 34 175 114 175 34 0 87 -42 92 -73
3 -20 9 -22 71 -25 l67 -3 0 28 c-1 44 -34 107 -75 140 -65 54 -159 66 -255
33z"/>
<path d="M4800 2370 l0 -80 70 0 70 0 0 80 0 80 -70 0 -70 0 0 -80z"/>
</g>
</svg>
